<svg width="100" height="70" viewBox="0 0 100 70" fill="none" xmlns="http://www.w3.org/2000/svg">
<path fill-rule="evenodd" clip-rule="evenodd" d="M29.8193 5.54358C19.1031 8.58186 10.1897 11.1879 10.0111 11.3348C9.64161 11.6391 0.55548 23.6965 0.211535 24.3391C-0.126942 24.9717 -0.0619025 25.4899 0.425988 26.0451C0.75841 26.4237 1.8879 26.8901 5.06466 27.9604L9.26388 29.3752L9.36154 40.9422C9.45646 52.1838 9.47013 52.5199 9.84982 52.8928C10.3119 53.3469 49.3522 69.5119 49.9865 69.5119C50.6209 69.5119 89.6611 53.3469 90.1233 52.8928C90.5029 52.5199 90.5166 52.1838 90.6115 40.9422L90.7092 29.3752L94.9084 27.9604C99.2971 26.4817 99.9865 26.093 99.9865 25.0969C99.9865 24.5297 99.8145 24.2813 94.5178 17.199C90.6236 11.992 90.0344 11.2897 89.342 11.0301C87.6598 10.3992 50.3586 -0.0181403 49.8471 2.37256e-05C49.5479 0.0105706 40.5354 2.5051 29.8193 5.54358ZM66.1975 7.79299C74.9524 10.2625 82.2789 12.353 82.4787 12.4383C82.7293 12.5453 77.7389 14.0002 66.4143 17.1217L49.9865 21.6498L33.5824 17.1281C24.5602 14.6412 17.2158 12.5692 17.2613 12.5235C17.4039 12.3811 49.4764 3.33049 49.8889 3.31643C50.1037 3.30901 57.4426 5.32366 66.1975 7.79299ZM29.6275 19.3813C39.1088 21.9979 46.9141 24.1869 46.9729 24.2455C47.0315 24.3043 45.0076 26.9045 42.4754 30.0239L37.8713 35.6953L33.4309 34.1744C30.9887 33.3381 23.4533 30.7801 16.6858 28.4903C9.91818 26.2002 4.35275 24.3063 4.31798 24.2813C4.28321 24.2565 5.89943 22.024 7.90939 19.3205C11.0428 15.1057 11.6225 14.4205 11.9762 14.5143C12.2031 14.5744 20.1463 16.7645 29.6275 19.3813ZM92.0744 19.335C94.0785 22.0305 95.6899 24.2565 95.6551 24.2813C95.6203 24.3063 90.0549 26.2002 83.2873 28.4903C76.5197 30.7801 68.9844 33.3381 66.5422 34.1744L62.1018 35.6953L57.4977 30.0239C54.9654 26.9045 52.9416 24.3043 53.0002 24.2457C53.1068 24.1391 87.7734 14.4987 88.2027 14.4563C88.3283 14.444 90.0705 16.6393 92.0744 19.335ZM48.3301 65.3742C48.2772 65.427 40.1908 62.1487 30.3602 58.0889L12.4865 50.7074V40.6762C12.4865 32.7832 12.5385 30.644 12.7307 30.641C12.8651 30.6389 18.7022 32.5811 25.7022 34.9567C37.6846 39.0233 38.4617 39.2606 38.9834 39.0114C39.3041 38.8582 41.3875 36.4698 43.9318 33.3383L48.3264 27.9301L48.3762 46.6041C48.4035 56.8748 48.3828 65.3213 48.3301 65.3742ZM56.3762 33.768C58.694 36.6104 60.6734 38.8602 60.9897 39.0114C61.5113 39.2606 62.2871 39.0237 74.2709 34.9567C81.2709 32.5811 87.1082 30.6389 87.2424 30.641C87.4346 30.644 87.4865 32.7832 87.4865 40.676V50.7073L69.8596 57.9897C60.1647 61.9951 52.0787 65.3135 51.8908 65.3641C51.567 65.4512 51.5494 64.4662 51.5553 46.6344C51.5613 27.9895 51.5651 27.8172 51.9391 28.301C52.1467 28.5696 54.1436 31.0297 56.3762 33.768Z" fill="white"/>
</svg>
