<svg width="20" height="13" viewBox="0 0 20 13" fill="none" xmlns="http://www.w3.org/2000/svg">
<path fill-rule="evenodd" clip-rule="evenodd" d="M0.356991 0.0805182C-0.0110946 0.30617 -0.115587 0.886139 0.142929 1.26835C0.351054 1.57602 -0.382618 1.55469 9.99672 1.55469C20.482 1.55469 19.6525 1.58151 19.8646 1.23565C19.958 1.08337 19.9772 1.00523 19.9772 0.77725C19.9772 0.549266 19.958 0.471133 19.8646 0.318852C19.6525 -0.0270599 20.4832 -0.00028686 9.98821 0.000927889C1.31922 0.00194828 0.473749 0.00889667 0.356991 0.0805182ZM0.365859 5.51025C-0.000157096 5.70855 -0.115313 6.3286 0.142929 6.71042C0.351054 7.01809 -0.382618 6.99676 9.99672 6.99676C20.482 6.99676 19.6525 7.02358 19.8646 6.67772C19.958 6.52544 19.9772 6.44731 19.9772 6.21932C19.9772 5.99134 19.958 5.91321 19.8646 5.76092C19.6525 5.41501 20.4835 5.44169 9.98821 5.44378C2.17523 5.44533 0.463827 5.45719 0.365859 5.51025ZM6.61586 10.9521C6.24977 11.1512 6.13469 11.7707 6.39293 12.1525C6.5993 12.4575 6.15914 12.4388 13.1243 12.4388C20.2196 12.4388 19.6519 12.4667 19.872 12.1078C19.9581 11.9674 19.9772 11.8853 19.9772 11.6566C19.9772 11.3545 19.9122 11.1978 19.7082 11.0084C19.6004 10.9083 19.5972 10.9083 13.1677 10.8978C7.87938 10.8892 6.71379 10.8988 6.61586 10.9521Z" fill="black"/>
</svg>
