<svg width="100" height="100" viewBox="0 0 100 100" fill="none" xmlns="http://www.w3.org/2000/svg">
<path fill-rule="evenodd" clip-rule="evenodd" d="M35.6383 0.0591391C25.6021 1.28336 18.0141 4.85289 11.4115 11.4552C5.47363 17.3931 1.82168 24.5222 0.351562 33.0453C-0.117187 35.7627 -0.117187 42.242 0.351562 44.9593C1.82168 53.4824 5.47363 60.6115 11.4115 66.5494C17.3494 72.4873 24.4785 76.1392 33.0016 77.6093C35.7207 78.0783 42.1992 78.0781 44.9156 77.6088C50.2861 76.681 55.2748 74.8486 59.2311 72.35L60.4773 71.5627L73.9855 85.0482C88.5453 99.5834 88.2158 99.2947 90.7889 99.7687C95.9683 100.723 100.679 96.0121 99.725 90.8326C99.251 88.2595 99.5396 88.589 85.0045 74.0293L71.5189 60.5211L72.3062 59.2748C74.8049 55.3185 76.6373 50.3298 77.565 44.9593C78.0344 42.2429 78.0346 35.7644 77.5656 33.0453C76.0955 24.5222 72.4435 17.3931 66.5057 11.4552C60.5912 5.54078 53.3406 1.81851 45.0133 0.421444C43.2361 0.123202 37.0668 -0.115275 35.6383 0.0591391ZM44.05 4.24527C58.1518 6.36832 69.6154 16.7619 73.0141 30.5062C73.6781 33.1918 73.9094 34.8759 74.0416 37.9941C74.4695 48.0691 70.0084 58.4091 62.2984 65.2129C53.4654 73.0074 41.8418 75.8716 30.4625 73.0578C24.2418 71.5195 18.7529 68.406 14.1539 63.807C8.74766 58.4007 5.4002 51.7533 4.17109 43.9828C3.85254 41.9683 3.85254 36.0363 4.17109 34.0218C5.4002 26.2513 8.74766 19.6039 14.1539 14.1976C20.1609 8.19059 27.3623 4.86558 36.3219 3.96226C37.6103 3.83238 42.4951 4.01129 44.05 4.24527ZM35.707 7.9525C28.6586 8.69488 21.9625 11.9015 16.9102 16.9539C8.49551 25.3685 5.59883 37.7207 9.40371 48.9632C10.9684 53.5867 13.4629 57.6035 16.9102 61.0507C25.3248 69.4654 37.677 72.3621 48.9195 68.5572C53.543 66.9925 57.5598 64.498 61.007 61.0507C69.4217 52.6361 72.3184 40.2839 68.5135 29.0414C65.3773 19.7746 58.1869 12.5841 48.9195 9.44723C44.6228 7.99293 40.1387 7.48551 35.707 7.9525ZM42.5504 11.9492C48.5924 12.7533 53.8184 15.355 58.2154 19.7476C68.9641 30.4857 68.9641 47.5105 58.2154 58.2591C47.4664 69.0082 30.4508 69.0082 19.7018 58.2591C8.95312 47.5105 8.95312 30.4857 19.7018 19.7476C25.8484 13.607 34.0283 10.8152 42.5504 11.9492ZM38.2531 15.7423C37.6346 16.013 37.0055 16.9142 37.0055 17.5293C37.0055 18.2816 37.8586 19.2408 38.6285 19.3541C38.9713 19.4046 40.1043 19.5396 41.1467 19.6541C46.8221 20.2775 51.899 23.3984 55.3131 28.3625C55.5365 28.6875 56.1158 29.7439 56.6004 30.7103C57.085 31.6769 57.6424 32.6072 57.8391 32.7777C58.7666 33.5816 60.2621 33.2328 60.7346 32.1021C61.0754 31.2863 60.8973 30.524 59.9053 28.5531C56.1559 21.1045 48.5602 16.075 40.4234 15.6529C39.4566 15.6027 38.4801 15.6429 38.2531 15.7423ZM59.7375 37.2406C59.1226 37.489 58.4898 38.3943 58.4898 39.0255C58.4898 39.8074 59.3875 40.7457 60.2697 40.8857C60.8644 40.9802 61.0785 40.9056 61.6324 40.4107C62.181 39.9205 62.2896 39.688 62.2896 39.0023C62.2896 38.3226 62.1803 38.0836 61.656 37.6152C61.0144 37.0418 60.4853 36.9384 59.7375 37.2406ZM72.0502 66.5275L74.7654 69.2478L73.4146 70.6888C72.6719 71.4812 71.4213 72.734 70.6355 73.4726L69.207 74.8154L66.4611 72.0695L63.7152 69.3238L66.4248 66.5816C67.915 65.0734 69.1795 63.8322 69.2346 63.8232C69.2898 63.8144 70.5568 65.0312 72.0502 66.5275ZM95.3596 90.0599C95.8096 90.7058 95.8922 91.0259 95.8922 92.125C95.8922 93.1896 95.8037 93.5562 95.4039 94.1466C94.3728 95.6697 92.6738 96.3099 90.9098 95.8404C90.1182 95.6297 89.1553 94.732 81.0184 86.6172L72.0037 77.6273L74.7684 74.8408L77.5328 72.0545L86.1799 80.6748C90.9357 85.4162 95.0666 89.6394 95.3596 90.0599Z" fill="white"/>
</svg>
