<svg width="100" height="100" viewBox="0 0 100 100" fill="none" xmlns="http://www.w3.org/2000/svg">
<path fill-rule="evenodd" clip-rule="evenodd" d="M46.3661 0.0489932C45.9901 0.0931338 44.8475 0.219696 43.827 0.330438C37.3831 1.02966 30.2471 3.44763 24.4889 6.88337C17.1604 11.2558 11.204 17.2123 6.83149 24.5408C3.42388 30.2519 1.1606 36.8888 0.237158 43.8789C-0.0790527 46.272 -0.0790527 53.5951 0.237158 55.9883C1.1606 62.9783 3.42388 69.6152 6.83149 75.3263C11.204 82.6549 17.1604 88.6113 24.4889 92.9838C30.2001 96.3914 36.837 98.6547 43.827 99.5781C46.2202 99.8943 53.5432 99.8943 55.9364 99.5781C68.0981 97.9713 78.4069 92.6297 86.8202 83.5758C91.4747 78.5668 95.1161 72.3365 97.3508 65.5586C99.1124 60.2158 99.7715 55.9615 99.7715 49.9336C99.7715 45.4742 99.5833 43.5041 98.7829 39.582C96.0383 26.1345 87.3985 14.1172 75.2745 6.88337C69.6215 3.51052 62.8805 1.19938 56.1317 0.320087C54.4188 0.09704 47.577 -0.092999 46.3661 0.0489932ZM53.8856 5.9902C65.2704 7.03376 76.2649 12.7574 83.5208 21.4179C93.0266 32.7642 96.2542 47.5252 92.3479 61.7869C90.845 67.2736 88.1792 72.5302 84.5663 77.1304C83.9126 77.9627 83.3309 78.6439 83.2735 78.6441C83.2161 78.6443 82.9145 77.7967 82.6032 76.7603C80.9379 71.2174 77.0758 65.2717 72.5909 61.3465C69.7774 58.884 65.9424 56.5193 62.4833 55.1144L61.7061 54.7988L62.3856 54.2904C63.6047 53.3781 66.6085 50.2197 67.3311 49.0898C70.0919 44.7742 71.2608 40.1088 70.776 35.3416C70.0491 28.1951 65.8838 22.0386 59.5469 18.7443C46.3776 11.8978 30.4948 20.524 28.9874 35.3416C28.5961 39.1877 29.3376 43.2429 31.0561 46.6582C32.4395 49.4074 34.7545 52.2511 37.0088 53.9701C37.5362 54.3722 37.9665 54.7492 37.9653 54.8076C37.9639 54.8662 37.3266 55.1699 36.5493 55.4828C31.278 57.6035 25.9905 61.7447 22.3127 66.6328C20.1834 69.4631 18.152 73.459 17.1542 76.7806C16.8461 77.8058 16.5473 78.6443 16.4899 78.6441C16.3237 78.6433 14.1045 75.7601 12.9852 74.0906C11.7618 72.2658 9.58462 68.0465 8.70239 65.7908C7.19126 61.9267 6.23833 57.4562 5.89107 52.6025C4.89048 38.6113 11.1817 24.3855 22.2823 15.5379C31.2467 8.39274 42.6178 4.95739 53.8856 5.9902ZM53.9833 22.7822C59.0016 24.2129 62.9325 28.141 64.4428 33.2343C65.1305 35.5535 65.1827 38.8838 64.5674 41.1726C62.7497 47.9342 56.8514 52.4726 49.8817 52.4726C42.912 52.4726 37.0137 47.9342 35.196 41.1726C34.5807 38.8838 34.6329 35.5535 35.3206 33.2343C37.036 27.4492 41.4913 23.5324 47.7333 22.3218C48.8661 22.1021 52.5497 22.3734 53.9833 22.7822ZM53.8856 58.9398C59.9372 59.7135 65.2993 62.4158 69.9137 67.0174C73.4065 70.5004 75.5858 74.0205 76.9963 78.458C77.4975 80.0344 78.2952 83.7424 78.1497 83.8183C78.1247 83.8314 77.5331 84.2873 76.8348 84.8316C70.8112 89.5269 63.5653 92.5334 55.4481 93.7049C53.1821 94.0318 46.5813 94.0318 44.3153 93.7049C36.1981 92.5334 28.9522 89.5269 22.9286 84.8316C22.2303 84.2873 21.6383 83.831 21.6131 83.8178C21.5877 83.8045 21.6952 83.065 21.8518 82.1748C23.6258 72.084 30.8635 63.6215 40.626 60.2232C44.9483 58.7189 49.051 58.3217 53.8856 58.9398Z" fill="white"/>
</svg>
